<svg viewBox="0 0 16 16" width="16px" height="16px"><path fill="#828282" d="M14.9,0c0.3,0,0.6,0.1,0.8,0.3S16,0.8,16,1.1v13.7c0,0.3-0.1,0.6-0.3,0.8c-0.2,0.2-0.5,0.3-0.8,0.3H1.1
		c-0.3,0-0.6-0.1-0.8-0.3C0.1,15.4,0,15.2,0,14.9V1.1c0-0.3,0.1-0.6,0.3-0.8S0.8,0,1.1,0H14.9z M3.6,5c0.4,0,0.7-0.1,1-0.4
		C4.9,4.4,5,4,5,3.7S4.9,3,4.6,2.7C4.4,2.4,4,2.3,3.6,2.3c-0.4,0-0.7,0.1-1,0.4s-0.4,0.6-0.4,1s0.1,0.7,0.4,1C2.9,4.9,3.3,5,3.6,5z
		 M4.8,13.7L4.8,13.7l0-7.6H2.5v7.6H4.8z M13.7,13.7V9.5c0-1.2-0.2-2.1-0.5-2.6c-0.5-0.7-1.2-1-2.3-1c-0.5,0-1,0.1-1.5,0.4
		C9.1,6.5,8.8,6.8,8.6,7.1h0v-1H6.3v7.6h2.4V9.9c0-0.6,0.1-1,0.2-1.4C9.2,8.2,9.6,8,10.1,8c0.5,0,0.9,0.2,1.1,0.7
		c0.1,0.3,0.2,0.7,0.2,1.4v3.7H13.7z"/></svg>